<svg id="svg" xmlns="http://www.w3.org/2000/svg" xmlns:xlink="http://www.w3.org/1999/xlink" width="400" height="400" viewBox="0, 0, 400,400"><g id="svgg"><path id="path0" d="M178.516 13.682 C 115.705 23.703,67.936 70.992,57.781 133.203 C 56.399 141.668,56.250 146.579,56.250 183.789 L 56.250 225.000 53.711 225.017 C 44.707 225.078,37.500 233.742,37.500 244.506 L 37.500 250.000 31.836 250.017 C 23.062 250.044,16.703 253.934,13.711 261.108 C 11.892 265.471,11.892 347.029,13.711 351.392 C 16.703 358.566,23.062 362.456,31.836 362.483 L 37.500 362.500 37.500 367.994 C 37.500 376.668,41.078 382.782,48.047 386.016 C 53.049 388.336,108.608 388.267,110.938 385.938 C 111.797 385.078,112.500 383.672,112.500 382.812 C 112.500 381.395,113.027 381.248,118.164 381.233 C 128.915 381.200,137.500 373.935,137.500 364.869 L 137.500 362.500 200.000 362.500 L 262.500 362.500 262.500 364.869 C 262.500 373.935,271.085 381.200,281.836 381.233 C 286.973 381.248,287.500 381.395,287.500 382.812 C 287.500 383.672,288.203 385.078,289.063 385.938 C 291.392 388.267,346.951 388.336,351.953 386.016 C 358.922 382.782,362.500 376.668,362.500 367.994 L 362.500 362.500 367.994 362.500 C 376.668 362.500,382.782 358.922,386.016 351.953 C 388.056 347.555,388.302 265.934,386.289 261.108 C 383.297 253.934,376.938 250.044,368.164 250.017 L 362.500 250.000 362.500 244.506 C 362.500 233.742,355.293 225.078,346.289 225.017 L 343.750 225.000 343.750 183.789 C 343.750 129.413,341.743 117.039,328.706 91.040 C 301.408 36.601,238.371 4.133,178.516 13.682 M211.616 26.139 C 254.167 28.580,296.858 57.711,316.996 98.047 C 329.005 122.101,331.206 136.742,331.234 192.773 L 331.250 225.000 325.042 225.000 L 318.834 225.000 318.549 181.445 L 318.264 137.891 316.233 129.688 C 295.823 47.250,202.303 10.816,132.422 58.078 C 112.480 71.566,94.832 95.002,87.114 118.247 C 81.680 134.612,81.784 133.445,81.460 181.445 L 81.166 225.000 74.958 225.000 L 68.750 225.000 68.766 192.773 C 68.797 130.535,72.289 113.183,90.421 85.156 C 114.326 48.205,163.111 22.117,201.953 25.514 C 203.242 25.627,207.590 25.908,211.616 26.139 M210.156 51.130 C 246.878 53.473,282.672 79.964,297.694 115.918 C 304.937 133.251,306.233 144.902,306.243 192.773 L 306.250 225.000 298.438 225.000 C 290.034 225.000,287.500 226.086,287.500 229.688 C 287.500 231.102,286.979 231.250,282.006 231.250 C 271.242 231.250,262.578 238.457,262.517 247.461 L 262.500 250.000 253.125 250.000 L 243.750 250.000 243.733 244.336 C 243.696 232.105,236.535 225.000,224.244 225.000 L 218.750 225.000 218.733 219.336 C 218.697 207.433,211.495 200.000,200.000 200.000 C 188.505 200.000,181.303 207.433,181.267 219.336 L 181.250 225.000 175.756 225.000 C 163.465 225.000,156.304 232.105,156.267 244.336 L 156.250 250.000 146.875 250.000 L 137.500 250.000 137.483 247.461 C 137.422 238.457,128.758 231.250,117.994 231.250 C 113.021 231.250,112.500 231.102,112.500 229.687 C 112.500 226.086,109.966 225.000,101.562 225.000 L 93.750 225.000 93.757 192.773 C 93.770 130.520,97.697 114.278,118.950 88.584 C 138.569 64.864,175.777 47.709,201.563 50.495 C 202.637 50.611,206.504 50.897,210.156 51.130 M180.544 64.111 C 163.927 67.693,144.500 77.857,135.191 87.839 L 133.272 89.897 137.925 94.504 L 142.578 99.112 149.219 93.708 C 180.320 68.401,222.392 69.635,254.746 96.805 L 257.538 99.150 262.168 94.433 L 266.797 89.715 262.500 85.810 C 241.625 66.838,208.536 58.077,180.544 64.111 M183.203 89.143 C 174.736 91.215,163.910 96.617,156.625 102.407 L 150.598 107.195 155.545 112.186 L 160.492 117.177 163.254 114.528 C 182.261 96.301,217.739 96.301,236.746 114.528 L 239.508 117.177 244.455 112.186 L 249.402 107.195 243.375 102.407 C 226.876 89.295,203.572 84.158,183.203 89.143 M187.478 113.966 C 181.898 115.752,174.537 119.729,171.184 122.768 L 168.540 125.165 173.265 129.890 L 177.989 134.614 181.120 132.134 C 191.807 123.670,208.193 123.670,218.880 132.134 L 222.011 134.614 226.773 129.852 L 231.535 125.090 229.635 123.442 C 218.394 113.689,200.742 109.721,187.478 113.966 M191.797 138.984 C 177.374 145.676,177.729 167.687,192.358 173.789 C 205.128 179.115,218.716 170.074,218.716 156.250 C 218.716 142.168,204.537 133.073,191.797 138.984 M203.906 152.344 C 204.774 153.212,205.469 154.948,205.469 156.250 C 205.469 157.552,204.774 159.288,203.906 160.156 C 203.038 161.024,201.302 161.719,200.000 161.719 C 198.698 161.719,196.962 161.024,196.094 160.156 C 195.226 159.288,194.531 157.552,194.531 156.250 C 194.531 154.948,195.226 153.212,196.094 152.344 C 196.962 151.476,198.698 150.781,200.000 150.781 C 201.302 150.781,203.038 151.476,203.906 152.344 M203.094 214.046 C 204.806 214.962,206.250 218.776,206.250 222.382 L 206.250 225.000 200.000 225.000 L 193.750 225.000 193.750 222.316 C 193.750 215.250,198.119 211.383,203.094 214.046 M100.000 306.250 L 100.000 375.000 78.632 375.000 C 54.696 375.000,52.790 374.697,51.088 370.622 C 49.647 367.175,49.458 246.320,50.886 242.222 C 52.410 237.851,54.085 237.565,78.320 237.531 L 100.000 237.500 100.000 306.250 M226.872 238.588 C 229.722 239.778,231.250 242.848,231.250 247.382 L 231.250 250.000 200.000 250.000 L 168.750 250.000 168.750 247.382 C 168.750 242.985,170.288 239.782,172.957 238.621 C 176.538 237.062,223.152 237.033,226.872 238.588 M345.280 238.387 C 350.138 240.080,350.000 238.100,350.000 306.250 C 350.000 374.400,350.138 372.420,345.280 374.113 C 343.621 374.691,335.296 375.000,321.368 375.000 L 300.000 375.000 300.000 306.250 L 300.000 237.500 321.368 237.500 C 335.296 237.500,343.621 237.809,345.280 238.387 M120.622 244.838 C 125.053 246.689,125.000 245.943,125.000 306.392 C 125.000 371.812,125.485 368.750,115.118 368.750 L 112.500 368.750 112.500 306.250 L 112.500 243.750 115.259 243.750 C 116.777 243.750,119.191 244.240,120.622 244.838 M287.500 306.250 L 287.500 368.750 284.882 368.750 C 274.515 368.750,275.000 371.812,275.000 306.392 C 275.000 241.103,274.575 243.885,284.570 243.781 L 287.500 243.750 287.500 306.250 M37.500 306.250 L 37.500 350.000 34.882 350.000 C 24.880 350.000,25.000 350.529,25.000 306.392 C 25.000 262.253,24.917 262.631,34.570 262.531 L 37.500 262.500 37.500 306.250 M262.500 306.250 L 262.500 350.000 200.000 350.000 L 137.500 350.000 137.500 306.250 L 137.500 262.500 200.000 262.500 L 262.500 262.500 262.500 306.250 M370.622 263.588 C 374.927 265.386,375.000 266.101,375.000 306.392 C 375.000 350.529,375.120 350.000,365.118 350.000 L 362.500 350.000 362.500 306.250 L 362.500 262.500 365.259 262.500 C 366.777 262.500,369.191 262.990,370.622 263.588 M160.547 276.484 C 146.124 283.176,146.479 305.187,161.108 311.289 C 173.878 316.615,187.466 307.574,187.466 293.750 C 187.466 279.668,173.287 270.573,160.547 276.484 M223.047 276.484 C 208.624 283.176,208.979 305.187,223.608 311.289 C 236.378 316.615,249.966 307.574,249.966 293.750 C 249.966 279.668,235.787 270.573,223.047 276.484 M172.656 289.844 C 173.524 290.712,174.219 292.448,174.219 293.750 C 174.219 295.052,173.524 296.788,172.656 297.656 C 171.788 298.524,170.052 299.219,168.750 299.219 C 167.448 299.219,165.712 298.524,164.844 297.656 C 163.976 296.788,163.281 295.052,163.281 293.750 C 163.281 292.448,163.976 290.712,164.844 289.844 C 165.712 288.976,167.448 288.281,168.750 288.281 C 170.052 288.281,171.788 288.976,172.656 289.844 M235.156 289.844 C 236.024 290.712,236.719 292.448,236.719 293.750 C 236.719 295.052,236.024 296.788,235.156 297.656 C 234.288 298.524,232.552 299.219,231.250 299.219 C 229.948 299.219,228.212 298.524,227.344 297.656 C 226.476 296.788,225.781 295.052,225.781 293.750 C 225.781 292.448,226.476 290.712,227.344 289.844 C 228.212 288.976,229.948 288.281,231.250 288.281 C 232.552 288.281,234.288 288.976,235.156 289.844 M56.250 312.500 L 56.250 318.750 62.500 318.750 L 68.750 318.750 68.750 312.500 L 68.750 306.250 62.500 306.250 L 56.250 306.250 56.250 312.500 M331.250 312.500 L 331.250 318.750 337.500 318.750 L 343.750 318.750 343.750 312.500 L 343.750 306.250 337.500 306.250 L 331.250 306.250 331.250 312.500 M156.250 331.250 L 156.250 337.500 162.500 337.500 L 168.750 337.500 168.750 331.250 L 168.750 325.000 162.500 325.000 L 156.250 325.000 156.250 331.250 M181.250 331.250 L 181.250 337.500 200.000 337.500 L 218.750 337.500 218.750 331.250 L 218.750 325.000 200.000 325.000 L 181.250 325.000 181.250 331.250 M231.250 331.250 L 231.250 337.500 237.500 337.500 L 243.750 337.500 243.750 331.250 L 243.750 325.000 237.500 325.000 L 231.250 325.000 231.250 331.250 M56.250 348.438 C 56.250 370.274,55.195 368.750,70.313 368.750 L 81.250 368.750 81.250 362.500 L 81.250 356.250 75.000 356.250 L 68.750 356.250 68.750 343.750 L 68.750 331.250 62.500 331.250 L 56.250 331.250 56.250 348.438 M331.250 343.750 L 331.250 356.250 325.000 356.250 L 318.750 356.250 318.750 362.500 L 318.750 368.750 329.688 368.750 C 344.805 368.750,343.750 370.274,343.750 348.438 L 343.750 331.250 337.500 331.250 L 331.250 331.250 331.250 343.750 " stroke="none" fill="#000000" fill-rule="evenodd"></path></g></svg>